<svg aria-hidden="true" style="position: absolute; width: 0; height: 0; overflow: hidden;" version="1.1" xmlns="http://www.w3.org/2000/svg" xmlns:xlink="http://www.w3.org/1999/xlink">
    <defs>
        <symbol id="icon-facebook" viewBox="0 0 20 20">
            <path d="M13.331 3.321h1.826v-3.18c-0.315-0.043-1.398-0.141-2.66-0.141-2.633 0-4.436 1.656-4.436 4.699v2.801h-2.905v3.555h2.905v8.945h3.562v-8.944h2.788l0.442-3.555h-3.231v-2.449c0.001-1.027 0.277-1.731 1.709-1.731z"></path>
        </symbol>
        <symbol id="icon-instagram" viewBox="0 0 20 20">
            <path d="M19.98 5.88c-0.047-1.063-0.219-1.793-0.465-2.426-0.254-0.672-0.645-1.274-1.157-1.774-0.5-0.508-1.106-0.903-1.77-1.153-0.637-0.246-1.363-0.418-2.426-0.465-1.071-0.051-1.411-0.063-4.126-0.063s-3.055 0.012-4.122 0.059c-1.063 0.047-1.793 0.219-2.426 0.465-0.672 0.254-1.274 0.645-1.774 1.157-0.508 0.5-0.902 1.106-1.153 1.77-0.246 0.637-0.418 1.363-0.465 2.426-0.051 1.071-0.063 1.41-0.063 4.126s0.012 3.055 0.059 4.122c0.047 1.063 0.219 1.793 0.465 2.426 0.254 0.672 0.648 1.274 1.156 1.774 0.5 0.508 1.106 0.903 1.77 1.153 0.637 0.246 1.363 0.418 2.426 0.465 1.066 0.047 1.407 0.059 4.122 0.059s3.055-0.012 4.122-0.059c1.063-0.047 1.793-0.219 2.426-0.465 1.344-0.52 2.407-1.582 2.927-2.926 0.246-0.637 0.418-1.364 0.465-2.426 0.047-1.067 0.059-1.407 0.059-4.122s-0.004-3.055-0.051-4.122zM18.179 14.046c-0.043 0.977-0.207 1.504-0.344 1.856-0.336 0.871-1.028 1.563-1.899 1.899-0.352 0.137-0.883 0.301-1.856 0.344-1.055 0.047-1.371 0.059-4.040 0.059s-2.989-0.012-4.040-0.059c-0.977-0.043-1.504-0.207-1.856-0.344-0.434-0.16-0.828-0.414-1.149-0.746-0.332-0.324-0.586-0.715-0.746-1.149-0.137-0.352-0.301-0.883-0.344-1.856-0.047-1.055-0.059-1.371-0.059-4.040s0.012-2.989 0.059-4.040c0.043-0.977 0.207-1.504 0.344-1.856 0.16-0.434 0.414-0.828 0.75-1.149 0.324-0.332 0.715-0.586 1.149-0.746 0.352-0.137 0.883-0.301 1.856-0.344 1.055-0.047 1.371-0.059 4.040-0.059 2.672 0 2.989 0.012 4.040 0.059 0.977 0.043 1.504 0.207 1.856 0.344 0.434 0.16 0.828 0.414 1.149 0.746 0.332 0.324 0.586 0.715 0.746 1.149 0.137 0.352 0.301 0.883 0.344 1.856 0.047 1.055 0.059 1.371 0.059 4.040s-0.012 2.981-0.059 4.036z"></path>
            <path d="M10.037 4.864c-2.836 0-5.138 2.301-5.138 5.138s2.301 5.138 5.138 5.138c2.837 0 5.138-2.301 5.138-5.138s-2.301-5.138-5.138-5.138zM10.037 13.335c-1.84 0-3.333-1.492-3.333-3.333s1.493-3.333 3.333-3.333c1.84 0 3.333 1.492 3.333 3.333s-1.492 3.333-3.333 3.333z"></path>
            <path d="M16.578 4.661c0 0.662-0.537 1.199-1.199 1.199s-1.199-0.537-1.199-1.199c0-0.663 0.537-1.199 1.199-1.199s1.199 0.537 1.199 1.199z"></path>
        </symbol>
        <symbol id="icon-linkedin" viewBox="0 0 20 20">
            <path d="M19.995 20v-0.001h0.005v-7.335c0-3.588-0.773-6.352-4.968-6.352-2.017 0-3.37 1.107-3.922 2.156h-0.058v-1.821h-3.978v13.352h4.142v-6.612c0-1.741 0.33-3.424 2.486-3.424 2.124 0 2.156 1.987 2.156 3.536v6.501h4.138z"></path>
            <path d="M0.33 6.647h4.147v13.353h-4.147v-13.353z"></path>
            <path d="M2.402 0c-1.326 0-2.402 1.076-2.402 2.402s1.076 2.424 2.402 2.424c1.326 0 2.402-1.098 2.402-2.424s-1.077-2.402-2.402-2.402v0z"></path>
        </symbol>
        <symbol id="icon-twitter" viewBox="0 0 20 20">
            <path d="M20 3.799c-0.744 0.326-1.536 0.543-2.363 0.648 0.85-0.508 1.499-1.305 1.804-2.266-0.792 0.472-1.667 0.806-2.6 0.992-0.753-0.801-1.825-1.298-2.995-1.298-2.27 0-4.097 1.843-4.097 4.101 0 0.325 0.027 0.638 0.095 0.935-3.409-0.166-6.425-1.8-8.451-4.289-0.354 0.614-0.561 1.316-0.561 2.073 0 1.42 0.731 2.679 1.821 3.407-0.659-0.012-1.305-0.204-1.853-0.505 0 0.012 0 0.029 0 0.045 0 1.993 1.421 3.647 3.285 4.029-0.334 0.091-0.698 0.135-1.075 0.135-0.263 0-0.527-0.015-0.776-0.070 0.531 1.624 2.039 2.818 3.831 2.856-1.395 1.091-3.166 1.749-5.084 1.749-0.336 0-0.659-0.015-0.981-0.056 1.816 1.171 3.969 1.84 6.29 1.84 7.545 0 11.67-6.25 11.67-11.667 0-0.181-0.006-0.356-0.015-0.53 0.814-0.577 1.498-1.299 2.055-2.129z"></path>
        </symbol>
        <symbol id="icon-mail" viewBox="0 0 20 20">
            <path stroke-linejoin="round" stroke-linecap="round" stroke-miterlimit="4" stroke-width="0.8333" d="M4 4.167h12c0.825 0 1.5 0.656 1.5 1.458v8.75c0 0.802-0.675 1.458-1.5 1.458h-12c-0.825 0-1.5-0.656-1.5-1.458v-8.75c0-0.802 0.675-1.458 1.5-1.458z"></path>
            <path stroke-linejoin="round" stroke-linecap="round" stroke-miterlimit="4" stroke-width="0.8333" d="M16.667 5.833l-6.667 5-6.667-5"></path>
        </symbol>
        <symbol id="icon-map-pin" viewBox="0 0 32 32">
            <path stroke-linejoin="round" stroke-linecap="round" stroke-miterlimit="4" stroke-width="1.3333" d="M26.667 13.818c0 7.636-10.667 14.182-10.667 14.182s-10.667-6.545-10.667-14.182c0-5.422 4.776-9.818 10.667-9.818s10.667 4.396 10.667 9.818v0z"></path>
            <path stroke-linejoin="round" stroke-linecap="round" stroke-miterlimit="4" stroke-width="1.3333" d="M16 18.667c2.209 0 4-1.791 4-4s-1.791-4-4-4-4 1.791-4 4c0 2.209 1.791 4 4 4z"></path>
        </symbol>
        <symbol id="icon-phone" viewBox="0 0 20 20">
            <path stroke-linejoin="round" stroke-linecap="round" stroke-miterlimit="4" stroke-width="0.8333" d="M16.666 13.336v2.011c0.002 0.378-0.156 0.738-0.434 0.993s-0.651 0.381-1.027 0.347c-2.063-0.224-4.044-0.929-5.786-2.058-1.62-1.029-2.993-2.403-4.022-4.022-1.133-1.749-1.838-3.74-2.058-5.812-0.034-0.375 0.091-0.747 0.345-1.025s0.613-0.436 0.989-0.437h2.011c0.673-0.007 1.247 0.487 1.341 1.153 0.085 0.644 0.242 1.276 0.469 1.884 0.184 0.49 0.066 1.042-0.302 1.415l-0.851 0.851c0.954 1.678 2.344 3.068 4.022 4.022l0.851-0.851c0.372-0.368 0.925-0.486 1.415-0.302 0.608 0.227 1.24 0.384 1.884 0.469 0.674 0.095 1.17 0.68 1.153 1.361z"></path>
        </symbol>
        <symbol id="icon-close-black" viewBox="0 0 20 20">
            <path d="M20 2.014l-2.014-2.014-7.986 7.986-7.986-7.986-2.014 2.014 7.986 7.986-7.986 7.986 2.014 2.014 7.986-7.986 7.986 7.986 2.014-2.014-7.986-7.986 7.986-7.986z"></path>
        </symbol>
        <symbol id="icon-logo" viewBox="0 0 25 20">
            <path d="M13.982 6.025l-0.468-0.357c-0.061-0.050-0.139-0.080-0.225-0.080-0.11 0-0.209 0.050-0.275 0.129l-0 0.001-6.475 7.436 0.1 0.111 1.604-1.479c-0.091-0.037-0.154-0.126-0.154-0.229 0-0.136 0.11-0.246 0.246-0.246 0.002 0 0.003 0 0.005 0h-0c0 0 0 0 0 0 0.109 0 0.201 0.071 0.232 0.17l0 0.002 2.114-1.961c0.031-0.025 0.071-0.040 0.114-0.040s0.083 0.015 0.115 0.041l-0-0 0.107 0.079c0.029 0.021 0.065 0.033 0.104 0.033 0.054 0 0.102-0.024 0.135-0.062l0-0 2.764-3.1c0.051-0.053 0.082-0.125 0.082-0.205 0-0.099-0.049-0.187-0.124-0.241l-0.001-0.001z">
            </path>
            <path d="M17.025 8.118c-1.337 0.962-2.9 1.716-4.585 2.173l-0.101 0.023c-1.501 0.399-3.245 0.67-5.039 0.755l-0.057 0.002c0.035 0.254 0.097 0.503 0.186 0.743 0.971 0.879 8.286-0.621 9.714-2.357 0.304-0.361-0.118-1.339-0.118-1.339zM8.339 11.786c-0.134 0-0.243-0.109-0.243-0.243s0.109-0.243 0.243-0.243c0.134 0 0.243 0.109 0.243 0.243v0c0 0.001 0 0.003 0 0.004 0 0.132-0.107 0.239-0.239 0.239-0.001 0-0.003-0-0.004-0h0zM1.429 7.604l0.057-0.246 0.929 0.211c0.077 0.141 0.124 0.297 0.139 0.457 0.018 0.17 0.007 0.341-0.032 0.507-0.049 0.241-0.157 0.451-0.308 0.623l0.001-0.001c-0.145 0.163-0.331 0.287-0.541 0.355l-0.009 0.002c-0.115 0.037-0.247 0.058-0.384 0.058-0.103 0-0.203-0.012-0.3-0.035l0.009 0.002c-0.233-0.052-0.435-0.162-0.597-0.315l0.001 0.001c-0.16-0.148-0.278-0.338-0.337-0.552l-0.002-0.008c-0.031-0.107-0.048-0.23-0.048-0.357s0.018-0.25 0.050-0.367l-0.002 0.010c0.038-0.175 0.107-0.342 0.204-0.493 0.092-0.137 0.212-0.249 0.352-0.329l0.005-0.003 0.129 0.196c-0.244 0.152-0.418 0.398-0.47 0.687l-0.001 0.006c-0.020 0.078-0.031 0.168-0.031 0.26 0 0.107 0.015 0.211 0.043 0.309l-0.002-0.008c0.048 0.174 0.143 0.331 0.275 0.454 0.136 0.131 0.305 0.221 0.489 0.261 0.179 0.050 0.368 0.050 0.546 0 0.171-0.056 0.325-0.156 0.446-0.289 0.125-0.144 0.211-0.317 0.25-0.504 0.022-0.083 0.035-0.178 0.035-0.276 0-0.146-0.029-0.286-0.081-0.414l0.003 0.007-0.818-0.207zM3.45 5.357l-0.832 1.111 0.357 0.639-0.164 0.221-1.321-2.411 0.154-0.211 2.689 0.579-0.168 0.221-0.714-0.15zM3.214 5.3l-1.429-0.321 0.714 1.282 0.714-0.961zM3.214 3.054l0.214-0.161 1.361 1.821 1.121-0.839 0.136 0.182-1.332 0.996-1.5-2zM5.464 1.564l0.239-0.107 0.943 2.064 1.275-0.579 0.093 0.207-1.514 0.689-1.036-2.275zM10.171 2.386l0.054 0.225-1.721 0.404-0.571-2.436 1.671-0.389 0.050 0.221-1.429 0.332 0.204 0.864 1.257-0.296 0.054 0.221-1.261 0.293 0.214 0.904 1.479-0.343zM12.625 2.475l-0.596-0.786c-0.067 0.004-0.133 0.004-0.2 0l-0.671 0.021 0.025 0.793h-0.264l-0.082-2.5 0.95-0.004c0.031-0.003 0.067-0.005 0.104-0.005 0.245 0 0.472 0.078 0.657 0.211l-0.003-0.002c0.179 0.145 0.293 0.365 0.293 0.612 0 0.003-0 0.007-0 0.010v-0.001c0.011 0.176-0.036 0.352-0.132 0.5-0.102 0.14-0.244 0.246-0.408 0.302l-0.006 0.002 0.625 0.836-0.289 0.011zM12.375 1.3c0.113-0.104 0.184-0.253 0.184-0.419 0-0.017-0.001-0.034-0.002-0.051l0 0.002c0-0.004 0-0.008 0-0.012 0-0.179-0.082-0.339-0.21-0.444l-0.001-0.001c-0.136-0.094-0.305-0.15-0.487-0.15-0.026 0-0.052 0.001-0.077 0.003l0.003-0-0.679 0.025 0.043 1.25 0.664-0.021c0.009 0 0.021 0.001 0.032 0.001 0.2 0 0.385-0.069 0.531-0.184l-0.002 0.001zM14.514 1.811l-0.129 0.854-0.261-0.039 0.132-0.839-0.739-1.786 0.279 0.043 0.632 1.521 1.071-1.261 0.25 0.054-1.236 1.454zM18.046 1.661l0.311 0.404-0.136 0.107-0.311-0.414-0.196 0.468-0.15-0.064 0.2-0.468-0.514 0.068v-0.171l0.507-0.057-0.314-0.404 0.139-0.107 0.275 0.407 0.193-0.471 0.154 0.064-0.182 0.479 0.514-0.071v0.175l-0.489 0.057zM19.239 4.539c-0.081-0.123-0.136-0.27-0.153-0.428l-0-0.004 0.211-0.093c0.016 0.141 0.062 0.278 0.136 0.4 0.080 0.137 0.184 0.258 0.307 0.357 0.123 0.118 0.282 0.199 0.46 0.224l0.005 0.001c0.011 0.001 0.023 0.002 0.036 0.002 0.12 0 0.228-0.055 0.299-0.14l0.001-0.001c0.052-0.057 0.083-0.133 0.083-0.216 0-0.009-0-0.019-0.001-0.028l0 0.001c-0.013-0.092-0.043-0.176-0.087-0.249l0.002 0.003c-0.076-0.123-0.148-0.227-0.224-0.327l0.007 0.009c-0.088-0.114-0.173-0.242-0.249-0.377l-0.008-0.016c-0.056-0.097-0.090-0.212-0.093-0.335l-0-0.001c0-0.132 0.050-0.26 0.139-0.357 0.077-0.092 0.177-0.163 0.292-0.202l0.005-0.001c0.059-0.018 0.128-0.028 0.198-0.028s0.139 0.010 0.203 0.029l-0.005-0.001c0.175 0.058 0.326 0.146 0.455 0.258l-0.002-0.001c0.11 0.091 0.207 0.197 0.289 0.314 0.076 0.109 0.133 0.229 0.168 0.357l-0.204 0.107c-0.039-0.128-0.092-0.239-0.16-0.34l0.003 0.005c-0.070-0.094-0.148-0.175-0.237-0.244l-0.003-0.002c-0.121-0.117-0.28-0.197-0.457-0.217l-0.004-0c-0.010-0.001-0.021-0.001-0.032-0.001-0.123 0-0.232 0.057-0.303 0.147l-0.001 0.001c-0.052 0.055-0.084 0.129-0.084 0.211 0 0.011 0.001 0.022 0.002 0.033l-0-0.001c0.008 0.090 0.038 0.177 0.086 0.254 0.050 0.082 0.121 0.189 0.218 0.318 0.096 0.121 0.181 0.251 0.257 0.386 0.057 0.096 0.092 0.211 0.096 0.335l0 0.001c0 0.132-0.050 0.26-0.139 0.357-0.077 0.094-0.179 0.164-0.296 0.202l-0.004 0.001c-0.059 0.019-0.128 0.029-0.198 0.029s-0.139-0.011-0.203-0.031l0.005 0.001c-0.176-0.058-0.329-0.146-0.459-0.259l0.002 0.001c-0.142-0.124-0.261-0.271-0.353-0.435l-0.004-0.008zM22.832 5.061l-0.504-0.714 0.186-0.132 1.161 1.657-0.186 0.132-0.504-0.714-1.864 1.304-0.15-0.218 1.861-1.314zM22.032 7.996c0.067-0.223 0.191-0.412 0.356-0.556l0.001-0.001c0.16-0.144 0.358-0.248 0.577-0.295l0.008-0.002c0.087-0.021 0.187-0.033 0.289-0.033 0.136 0 0.268 0.021 0.391 0.060l-0.009-0.002c0.217 0.073 0.401 0.196 0.545 0.356l0.001 0.001c0.149 0.17 0.255 0.381 0.302 0.613l0.001 0.009c0.028 0.103 0.044 0.222 0.044 0.345s-0.016 0.241-0.047 0.354l0.002-0.010c-0.069 0.222-0.193 0.411-0.356 0.556l-0.001 0.001c-0.233 0.21-0.544 0.338-0.884 0.338-0.14 0-0.274-0.022-0.401-0.062l0.009 0.003c-0.219-0.070-0.403-0.193-0.545-0.356l-0.001-0.001c-0.148-0.169-0.255-0.378-0.302-0.609l-0.001-0.009c-0.023-0.095-0.037-0.204-0.037-0.316 0-0.137 0.020-0.269 0.057-0.394l-0.003 0.010zM22.5 9.132c0.119 0.136 0.274 0.236 0.446 0.289 0.092 0.028 0.199 0.044 0.308 0.044 0.279 0 0.534-0.103 0.729-0.273l-0.001 0.001c0.132-0.121 0.229-0.275 0.282-0.446 0.026-0.092 0.041-0.197 0.041-0.306 0-0.285-0.103-0.545-0.275-0.746l0.001 0.002c-0.122-0.133-0.278-0.233-0.453-0.287l-0.007-0.002c-0.082-0.023-0.177-0.036-0.275-0.036s-0.192 0.013-0.283 0.038l0.008-0.002c-0.19 0.037-0.355 0.124-0.486 0.247l0.001-0.001c-0.13 0.119-0.228 0.271-0.28 0.443l-0.002 0.007c-0.023 0.083-0.036 0.178-0.036 0.277s0.013 0.194 0.038 0.284l-0.002-0.008c0.042 0.185 0.128 0.346 0.247 0.476l-0.001-0.001zM21.761 12.143l0.925-0.357c0-0.064 0.021-0.129 0.039-0.196l0.175-0.646-0.757-0.196 0.068-0.254 2.414 0.646-0.243 0.904c-0.058 0.272-0.206 0.502-0.412 0.662l-0.002 0.002c-0.123 0.086-0.275 0.138-0.44 0.138-0.085 0-0.167-0.014-0.244-0.039l0.005 0.002c-0.35-0.078-0.609-0.385-0.611-0.753v-0l-0.986 0.357 0.068-0.268zM22.957 12.243c0.112 0.2 0.322 0.333 0.563 0.333 0.123 0 0.238-0.035 0.336-0.095l-0.003 0.002c0.154-0.124 0.263-0.299 0.303-0.498l0.001-0.005 0.171-0.643-1.211-0.325-0.171 0.643c-0.030 0.083-0.047 0.18-0.047 0.28 0 0.111 0.021 0.218 0.060 0.315l-0.002-0.006zM20.479 14.443l-0.182-0.139 1.071-1.411 1.993 1.511-1.036 1.368-0.182-0.139 0.875-1.154-0.714-0.539-0.782 1.032-0.179-0.136 0.8-1.032-0.739-0.561-0.925 1.2zM19.643 17.289l-0.511 0.029v-0.171l0.511-0.004-0.275-0.425 0.139-0.089 0.271 0.429 0.221-0.479 0.154 0.082-0.243 0.45 0.511-0.029v0.175h-0.518l0.275 0.425-0.139 0.089-0.271-0.429-0.236 0.464-0.15-0.086 0.261-0.432zM15 17.004l0.432 0.239c0.147-0.279 0.401-0.484 0.707-0.563l0.008-0.002c0.1-0.032 0.216-0.051 0.336-0.051 0.036 0 0.072 0.002 0.108 0.005l-0.005-0c0.135 0.011 0.257 0.057 0.359 0.13l-0.002-0.001c0.095 0.071 0.165 0.171 0.2 0.286 0.043 0.141 0.036 0.293-0.021 0.429-0.094 0.192-0.214 0.356-0.357 0.496l-0 0c0.118 0.063 0.227 0.141 0.325 0.232 0.068 0.070 0.117 0.154 0.146 0.246 0.009 0.035 0.015 0.075 0.015 0.117 0 0.115-0.041 0.22-0.108 0.302l0.001-0.001c-0.095 0.135-0.233 0.233-0.395 0.274l-0.005 0.001c-0.143 0.054-0.3 0.054-0.443 0-0.128-0.056-0.223-0.166-0.256-0.3l-0.001-0.003c-0.014-0.044-0.023-0.095-0.023-0.147 0-0.076 0.018-0.149 0.049-0.213l-0.001 0.003c0.086-0.169 0.192-0.314 0.318-0.439v0l-0.861-0.479c-0.033 0.168-0.040 0.34-0.021 0.511h-0.218c-0.003-0.036-0.004-0.077-0.004-0.119 0-0.179 0.028-0.352 0.079-0.514l-0.003 0.012-0.45-0.25 0.093-0.2zM15.621 17.361l0.946 0.525c0.121-0.116 0.223-0.252 0.3-0.402l0.004-0.008c0.039-0.104 0.039-0.218 0-0.321-0.034-0.126-0.127-0.226-0.247-0.267l-0.003-0.001c-0.068-0.024-0.147-0.038-0.229-0.038s-0.16 0.014-0.234 0.039l0.005-0.002c-0.248 0.067-0.448 0.237-0.555 0.459l-0.002 0.005 0.014 0.011zM16.964 18.789c0.028-0.047 0.045-0.103 0.045-0.164 0-0.036-0.006-0.071-0.017-0.103l0.001 0.002c-0.023-0.073-0.063-0.136-0.114-0.186l-0-0c-0.086-0.073-0.184-0.139-0.288-0.192l-0.009-0.004c-0.106 0.105-0.199 0.222-0.278 0.349l-0.005 0.008c-0.026 0.049-0.042 0.106-0.042 0.168 0 0.034 0.005 0.068 0.014 0.099l-0.001-0.003c0.024 0.084 0.081 0.151 0.155 0.188l0.002 0.001c0.091 0.034 0.191 0.034 0.282 0 0.1-0.027 0.182-0.087 0.238-0.167l0.001-0.001 0.014 0.004zM10.646 19.757l0.050-2.5h0.254l-0.039 2 1.014-1.664h0.125l0.95 1.693 0.036-1.989h0.254l-0.046 2.5h-0.218l-1.050-1.868-1.111 1.832-0.218-0.004zM9.404 17.143c0.233 0.222 0.378 0.535 0.378 0.882 0 0.126-0.019 0.248-0.055 0.363l0.002-0.009c-0.062 0.23-0.18 0.426-0.339 0.582l-0 0c-0.154 0.151-0.349 0.262-0.567 0.313l-0.008 0.002c-0.092 0.022-0.197 0.034-0.305 0.034-0.138 0-0.272-0.020-0.398-0.058l0.010 0.003c-0.234-0.058-0.437-0.172-0.601-0.326l0.001 0.001c-0.157-0.15-0.273-0.341-0.33-0.556l-0.002-0.008c-0.024-0.095-0.038-0.204-0.038-0.316 0-0.369 0.151-0.702 0.395-0.941l0-0c0.152-0.151 0.342-0.263 0.556-0.32l0.009-0.002c0.091-0.022 0.196-0.034 0.303-0.034 0.138 0 0.27 0.020 0.396 0.058l-0.010-0.003c0.236 0.061 0.44 0.178 0.604 0.336l-0-0zM8.186 17.018c-0.182 0.043-0.338 0.133-0.461 0.257l-0 0c-0.128 0.127-0.222 0.288-0.27 0.468l-0.002 0.007c-0.050 0.179-0.050 0.368 0 0.546 0.042 0.174 0.132 0.332 0.261 0.457 0.13 0.128 0.293 0.223 0.474 0.273l0.008 0.002c0.083 0.022 0.178 0.035 0.277 0.035s0.194-0.013 0.285-0.036l-0.008 0.002c0.175-0.043 0.335-0.132 0.464-0.257 0.127-0.128 0.222-0.288 0.27-0.468l0.002-0.007c0.024-0.082 0.037-0.177 0.037-0.275s-0.014-0.193-0.039-0.282l0.002 0.007c-0.048-0.18-0.14-0.335-0.264-0.457l-0-0c-0.131-0.128-0.295-0.222-0.478-0.27l-0.007-0.002c-0.082-0.024-0.177-0.037-0.275-0.037s-0.193 0.014-0.282 0.039l0.007-0.002zM5.482 15.357l0.096 0.982c0.061 0.026 0.121 0.056 0.179 0.089l0.582 0.336 0.393-0.693 0.232 0.132-1.25 2.154-0.814-0.468c-0.241-0.123-0.428-0.321-0.533-0.564l-0.003-0.007c-0.028-0.077-0.044-0.166-0.044-0.258 0-0.156 0.046-0.302 0.124-0.424l-0.002 0.003c0.083-0.156 0.214-0.282 0.375-0.357 0.094-0.040 0.203-0.063 0.317-0.063 0.070 0 0.138 0.009 0.203 0.025l-0.006-0.001-0.104-1.050 0.254 0.164zM5.075 16.486c-0.282 0.073-0.486 0.324-0.486 0.624 0 0.064 0.009 0.126 0.027 0.184l-0.001-0.005c0.084 0.185 0.229 0.335 0.411 0.425l0.575 0.332 0.625-1.071-0.575-0.332c-0.146-0.11-0.33-0.176-0.529-0.176-0.016 0-0.032 0-0.048 0.001l0.002-0v0.018zM3.368 13.682l0.161-0.161 1.232 1.268-1.786 1.743-1.189-1.229 0.164-0.161 1.011 1.039 0.611-0.618-0.886-0.921 0.171-0.164 0.904 0.929 0.664-0.646-1.057-1.079zM0.714 12.279l0.086-0.493 0.168 0.025-0.096 0.507 0.475-0.175 0.057 0.157-0.482 0.164 0.396 0.336-0.114 0.129-0.382-0.357-0.089 0.507-0.171-0.032 0.1-0.507-0.479 0.171-0.054-0.139 0.479-0.168-0.396-0.332 0.118-0.129 0.386 0.336z"></path>
        </symbol>
        <symbol id="icon-burger-menu-open" viewBox="0 0 32 32">
            <path d="M6.4 11.733v-2.133h19.2v2.133h-19.2zM6.4 17.067h19.2v-2.133h-19.2v2.133zM6.4 22.4h19.2v-2.133h-19.2v2.133z"></path>
        </symbol>
        <symbol id="icon-mobile-close" viewBox="0 0 32 32">
            <path d="M23.733 10.304l-1.504-1.504-5.963 5.963-5.963-5.963-1.504 1.504 5.963 5.963-5.963 5.963 1.504 1.504 5.963-5.963 5.963 5.963 1.504-1.504-5.963-5.963 5.963-5.963z"></path>
        </symbol>
    </defs>
</svg>
